<?xml version="1.0" standalone="no"?>
<!DOCTYPE svg PUBLIC "-//W3C//DTD SVG 20010904//EN"
 "http://www.w3.org/TR/2001/REC-SVG-20010904/DTD/svg10.dtd">
<svg version="1.0" xmlns="http://www.w3.org/2000/svg"
 width="260.000000pt" height="260.000000pt" viewBox="0 0 260.000000 260.000000"
 preserveAspectRatio="xMidYMid meet">
<metadata>
Created by potrace 1.14, written by Peter Selinger 2001-2017
</metadata>
<g transform="translate(0.000000,260.000000) scale(0.100000,-0.100000)"
fill="#000000" stroke="none">
<path d="M22 2560 c0 -14 2 -19 5 -12 2 6 2 18 0 25 -3 6 -5 1 -5 -13z"/>
<path d="M144 2529 c-28 -57 -26 -80 6 -72 19 5 90 96 90 115 0 5 -16 8 -35 8
-32 0 -37 -4 -61 -51z"/>
<path d="M280 2569 c0 -6 -16 -45 -36 -86 -25 -51 -47 -81 -70 -96 -25 -17
-32 -27 -28 -42 4 -11 8 -22 10 -24 4 -4 134 130 202 209 36 42 40 50 24 50
-12 0 -36 -21 -61 -55 -41 -54 -76 -78 -47 -32 18 29 28 87 16 87 -6 0 -10 -5
-10 -11z"/>
<path d="M740 2556 c0 -15 4 -25 9 -22 10 7 9 31 -2 42 -4 4 -7 -5 -7 -20z"/>
<path d="M2119 2564 c70 -19 73 -21 60 -47 -9 -20 -9 -20 9 2 11 13 24 21 31
17 19 -12 51 4 51 25 0 14 -7 19 -26 19 -24 0 -24 -1 -8 -17 25 -26 -3 -30
-30 -4 -24 22 -42 28 -30 10 5 -8 1 -8 -14 0 -11 6 -38 11 -59 10 -37 0 -37
-1 16 -15z"/>
<path d="M2327 2573 c-4 -3 -7 -21 -7 -38 0 -25 6 -35 26 -44 16 -7 24 -17 20
-26 -3 -8 -1 -17 5 -20 5 -4 23 -34 40 -67 33 -66 57 -69 35 -4 -8 24 -26 46
-46 59 -18 12 -28 23 -22 25 7 2 9 8 6 13 -4 7 8 8 33 4 l38 -7 -31 20 c-17
11 -44 36 -61 56 -16 20 -32 33 -36 29z"/>
<path d="M2502 2560 c8 -13 23 -20 43 -20 l30 1 -24 19 c-13 11 -32 20 -42 20
-17 0 -18 -3 -7 -20z"/>
<path d="M442 2545 c0 -16 2 -22 5 -12 2 9 2 23 0 30 -3 6 -5 -1 -5 -18z"/>
<path d="M461 2520 c-1 -38 5 -64 17 -83 10 -15 21 -25 24 -21 4 3 18 -2 32
-11 27 -18 35 -9 14 14 -11 11 -8 12 12 7 14 -3 6 3 -18 15 -43 20 -51 32 -70
99 -10 34 -10 34 -11 -20z"/>
<path d="M82 2515 c0 -16 2 -22 5 -12 2 9 2 23 0 30 -3 6 -5 -1 -5 -18z"/>
<path d="M2260 2513 c1 -8 90 -56 90 -49 0 4 -78 56 -85 56 -3 0 -5 -3 -5 -7z"/>
<path d="M1799 2489 c18 -11 35 -18 38 -15 5 5 -50 36 -64 36 -4 0 7 -9 26
-21z"/>
<path d="M2511 2481 c-11 -11 -27 -18 -35 -15 -8 3 -17 1 -20 -4 -3 -5 8 -12
25 -16 16 -3 45 -17 63 -31 l33 -25 0 29 c0 21 -4 27 -17 24 -9 -2 -23 3 -30
12 -12 14 -12 18 0 25 8 5 12 12 8 15 -3 4 -16 -3 -27 -14z"/>
<path d="M92 2455 c0 -16 2 -22 5 -12 2 9 2 23 0 30 -3 6 -5 -1 -5 -18z"/>
<path d="M1692 2435 c-12 -25 -26 -45 -31 -45 -6 0 -3 12 5 28 21 41 16 50
-11 20 -23 -27 -43 -38 -30 -19 3 5 1 12 -5 16 -5 3 -10 -3 -10 -14 0 -11 -4
-22 -9 -25 -4 -3 -7 8 -5 25 2 18 0 28 -6 24 -6 -3 -10 -16 -10 -28 0 -38 -13
-47 -38 -27 -15 13 -20 24 -15 37 6 16 5 16 -10 4 -21 -17 -22 -8 -1 13 14 15
14 16 0 16 -9 0 -16 -4 -16 -10 0 -5 -5 -9 -12 -7 -49 10 27 -97 257 -362 50
-57 142 -148 204 -203 l115 -99 13 25 c14 28 4 93 -24 146 -11 22 -11 25 3 28
10 3 13 9 8 20 -12 27 -17 233 -6 244 16 16 3 36 -20 30 -19 -5 -20 -2 -14 24
l6 29 -15 -27 c-9 -16 -21 -28 -28 -27 -9 0 -9 2 1 6 6 2 12 9 12 14 0 4 -7 6
-15 2 -24 -9 -46 27 -32 52 10 19 9 19 -9 5 -10 -8 -23 -19 -27 -25 -5 -5 -6
4 -3 20 l6 30 -18 -33 c-10 -18 -21 -30 -25 -26 -4 4 -2 13 4 21 9 10 8 13 -5
13 -9 0 -16 -4 -16 -10 0 -5 -4 -10 -9 -10 -14 0 1 54 20 73 22 21 26 35 5 18
-11 -9 -15 -9 -19 1 -3 7 -6 3 -6 -9 -1 -13 -5 -23 -11 -23 -5 0 -18 -10 -30
-22 -16 -18 -20 -19 -20 -6 0 9 6 23 13 30 7 7 16 24 20 38 6 22 3 21 -20 -9
l-27 -35 -6 25 -6 24 -18 -30 -17 -30 4 53 c5 66 -11 69 -41 7z m34 23 c-12
-40 -17 -50 -22 -46 -5 6 13 58 20 58 3 0 4 -6 2 -12z m329 -458 c3 -5 -1 -10
-9 -10 -9 0 -16 5 -16 10 0 6 4 10 9 10 6 0 13 -4 16 -10z"/>
<path d="M420 2448 c0 -9 7 -19 16 -22 15 -6 15 -4 3 11 -7 10 -15 20 -16 22
-2 2 -3 -3 -3 -11z"/>
<path d="M1445 2440 c3 -5 8 -10 11 -10 2 0 4 5 4 10 0 6 -5 10 -11 10 -5 0
-7 -4 -4 -10z"/>
<path d="M2180 2435 c-12 -15 -12 -16 6 -13 32 5 31 -63 -3 -127 -15 -30 -24
-57 -20 -62 10 -9 28 17 21 29 -3 5 4 23 14 41 32 50 37 99 15 126 -18 21 -20
22 -33 6z"/>
<path d="M1151 2425 c4 -29 -1 -37 -16 -25 -12 10 -16 9 -21 -4 -3 -9 -11 -13
-16 -10 -7 4 -7 0 0 -12 5 -11 9 -35 9 -54 0 -19 -2 -27 -4 -17 -3 9 -11 17
-19 17 -8 0 -14 8 -14 18 -1 16 -1 16 -10 0 -11 -19 -10 -69 2 -62 4 3 8 13 8
22 0 14 2 15 10 2 6 -9 5 -17 -3 -22 -9 -6 -9 -12 1 -28 l13 -21 -29 21 c-16
12 -35 22 -43 23 -8 2 -20 6 -26 10 -7 5 -13 5 -13 1 0 -4 -6 1 -14 12 -13 18
-14 17 -13 -15 1 -19 -3 -36 -10 -38 -7 -3 -13 4 -14 14 0 16 -1 16 -9 -2 -5
-11 -9 -14 -9 -6 -1 7 -7 11 -15 8 -11 -4 -14 -1 -10 11 2 9 -1 7 -7 -6 -7
-13 -18 -21 -26 -18 -9 4 -13 0 -11 -12 2 -10 -2 -16 -11 -14 -10 2 -12 -4 -6
-25 l7 -28 -26 24 c-21 20 -26 21 -26 8 0 -9 -8 -17 -17 -17 -10 -1 -29 -8
-43 -16 -17 -10 -18 -13 -5 -9 57 20 60 20 36 -4 -12 -12 -29 -20 -36 -17 -10
3 -12 0 -8 -11 5 -12 3 -14 -7 -8 -10 6 -12 4 -7 -7 7 -19 -21 -61 -35 -52
-14 9 -2 -49 21 -101 49 -111 61 -146 76 -218 9 -43 15 -105 13 -138 -1 -32 0
-59 5 -59 4 0 7 -17 7 -37 0 -47 9 -83 21 -83 5 0 8 3 7 8 -1 4 3 17 10 29 11
19 10 25 -8 43 -24 24 -25 30 -6 30 8 0 16 5 18 11 3 9 10 9 26 0 35 -19 27 6
-10 30 -31 20 -18 22 25 4 17 -7 18 -6 6 14 -8 11 -19 21 -26 21 -6 0 -15 9
-18 20 -3 11 -11 20 -17 20 -6 0 -8 3 -5 7 4 3 17 -2 28 -13 l22 -19 -19 29
-18 29 21 -12 c30 -16 41 -14 17 4 -14 10 -15 14 -4 15 11 0 11 3 2 12 -7 7
-12 19 -12 27 0 12 6 9 21 -9 11 -14 18 -19 14 -12 -3 6 -1 12 6 12 8 0 8 5
-2 18 -12 15 -12 15 7 -1 19 -15 22 -16 27 -3 4 10 -5 23 -24 37 -37 26 -30
39 7 14 22 -14 28 -15 35 -4 12 19 11 29 -1 29 -5 0 -10 4 -10 10 0 5 7 7 16
3 9 -3 14 -13 11 -24 -3 -10 4 -26 16 -36 20 -17 20 -17 13 2 -5 11 -10 49
-12 85 -4 57 -4 82 -1 152 1 21 13 11 21 -17 3 -11 4 -5 2 13 -1 18 1 35 6 38
4 3 8 1 8 -3 0 -5 7 -18 15 -29 14 -18 14 -17 5 9 -7 19 -7 35 0 48 6 11 8 24
5 29 -9 14 9 12 24 -2 11 -11 12 -9 3 8 -6 11 -18 26 -26 34 -9 7 -16 18 -16
24 0 6 7 2 15 -8 20 -26 30 -14 14 16 -11 21 -11 22 4 9 20 -16 23 -1 5 18
-11 11 -9 13 7 8 11 -2 28 -8 37 -12 14 -5 16 -2 13 17 -4 21 -3 21 20 -7 14
-17 24 -24 25 -16 0 9 10 3 24 -14 21 -25 25 -26 33 -10 7 11 13 14 17 7 4 -6
13 -9 21 -6 8 3 19 -6 28 -23 l15 -28 13 28 c12 27 14 28 27 10 10 -13 13 -14
12 -3 -4 27 0 40 11 40 7 0 9 -11 6 -28 -3 -15 -2 -34 4 -42 7 -12 9 -9 9 10
l0 24 17 -21 18 -22 17 27 18 27 1 -30 c0 -24 2 -26 8 -11 11 28 23 4 16 -31
l-7 -28 20 24 c12 15 22 20 26 13 3 -6 2 -13 -3 -16 -5 -4 -7 -23 -4 -43 5
-29 3 -35 -8 -28 -8 5 -11 4 -6 -1 5 -5 16 -9 25 -9 11 0 16 -7 14 -17 -2 -10
2 -18 8 -18 6 0 5 -9 -4 -22 -7 -13 -17 -36 -20 -52 -6 -26 -5 -28 8 -17 8 7
12 19 9 27 -3 8 -1 14 5 14 13 0 24 -43 26 -106 2 -40 0 -49 -10 -40 -6 6 -10
14 -7 19 2 4 -1 7 -6 7 -13 0 -15 -17 -3 -24 9 -5 8 -53 -1 -63 -14 -13 -6
-25 8 -13 9 7 14 19 11 27 -3 7 1 13 8 13 8 0 16 6 19 13 2 7 8 8 13 3 5 -5 4
-11 -3 -13 -7 -3 -13 -11 -13 -19 0 -8 6 -14 13 -14 7 -1 5 -6 -5 -14 -25 -18
-22 -29 5 -21 17 6 19 5 10 -5 -17 -19 -5 -37 22 -35 21 3 23 1 12 -16 -6 -10
-15 -19 -20 -19 -4 0 -5 5 -2 10 9 14 -29 12 -43 -2 -19 -19 -14 -29 8 -16 15
10 22 10 32 0 9 -9 9 -15 -4 -24 -18 -14 -58 -78 -58 -92 0 -4 11 -6 25 -4 14
3 25 1 25 -3 0 -5 -4 -9 -10 -9 -5 0 -10 -7 -10 -16 0 -8 5 -12 10 -9 6 3 10
-1 10 -9 0 -9 -7 -16 -17 -16 -9 0 -13 -3 -10 -6 4 -4 -6 -18 -21 -30 -15 -13
-22 -24 -16 -24 6 0 21 11 34 25 32 34 36 25 11 -21 -23 -42 -14 -54 21 -30
28 20 50 21 24 1 -42 -32 -54 -95 -19 -95 12 0 13 -3 4 -13 -6 -8 -8 -17 -4
-20 3 -4 1 -7 -5 -7 -7 0 -12 -4 -12 -10 0 -5 3 -9 8 -9 21 4 24 -3 6 -17 -18
-15 -18 -15 11 -9 21 4 26 3 16 -4 -18 -12 -22 -51 -5 -44 7 2 11 -3 11 -14
-2 -15 5 -18 43 -16 41 1 42 0 18 -9 -34 -12 -36 -23 -5 -33 19 -6 19 -8 5
-12 -16 -4 -16 -6 -3 -20 10 -10 25 -13 48 -8 l32 6 -36 -18 c-50 -25 -39 -39
26 -35 43 3 55 1 55 -10 0 -12 12 -14 53 -10 44 3 54 1 54 -12 0 -11 -4 -13
-12 -6 -17 14 -80 1 -66 -13 19 -19 12 -30 -14 -25 -13 3 -22 1 -19 -4 3 -5
16 -8 27 -7 12 0 27 1 33 0 17 -2 64 -52 58 -62 -3 -5 2 -6 11 -3 11 4 14 2 9
-9 -6 -16 -20 -17 -42 -3 -24 15 -25 -3 -1 -26 32 -31 52 -87 38 -105 -6 -7
-15 -10 -20 -7 -5 3 -9 0 -9 -5 0 -6 4 -11 10 -11 5 0 8 -17 6 -38 -2 -20 1
-48 5 -62 8 -22 8 -23 -4 -8 -8 10 -17 15 -21 11 -4 -4 -4 -1 -1 8 3 8 -1 23
-9 34 -13 18 -14 15 -9 -35 5 -49 4 -53 -11 -41 -15 12 -20 8 -17 -11 2 -12
-27 -10 -34 2 -10 16 -21 11 -21 -10 0 -11 4 -20 8 -20 4 0 8 -10 8 -22 0 -21
-2 -21 -20 7 l-20 30 -2 -40 c-3 -66 -5 -79 -16 -105 -7 -19 -9 -5 -6 60 3 58
1 79 -5 65 -5 -11 -10 -15 -10 -10 -1 6 -9 15 -19 22 -18 10 -19 8 -15 -40 l3
-52 -14 35 -14 35 -10 -26 c-10 -24 -30 -39 -52 -39 -5 0 -16 12 -24 28 -13
24 -14 8 -15 -170 l-2 -198 115 0 c78 0 117 4 122 12 4 7 7 32 6 57 -1 26 3
64 8 86 8 33 9 25 6 -43 -3 -52 -1 -80 6 -76 5 3 71 51 146 106 246 179 382
246 513 250 l74 3 3 394 c1 257 -1 398 -8 405 -13 13 -13 29 0 21 6 -3 10 3
10 15 0 12 -23 53 -51 91 -52 69 -69 87 -49 49 12 -23 7 -25 -21 -9 -20 10
-20 10 -3 -15 27 -42 -6 -22 -41 25 -16 21 -62 71 -102 110 -40 39 -73 74 -73
76 0 3 6 0 14 -7 13 -10 13 -7 3 20 -11 29 -102 108 -112 98 -3 -2 16 -21 40
-42 25 -20 45 -41 45 -47 0 -15 -89 63 -96 84 -3 10 -21 25 -40 33 -33 14 -50
32 -18 20 17 -6 -26 34 -151 141 -107 91 -248 243 -380 408 l-119 148 -13 -29
c-9 -23 -12 -25 -13 -9 -1 19 -2 19 -20 -4 -11 -13 -20 -34 -20 -47 0 -12 -5
-26 -11 -30 -7 -4 -9 0 -5 14 8 25 -10 38 -30 21 -8 -7 -14 -8 -13 -3 1 5 1
18 -1 29 l-1 20 -9 -20 c-8 -21 -8 -21 -23 25 -4 10 -6 8 -6 -6 -1 -12 -9 -28
-18 -35 -11 -10 -14 -10 -9 -1 4 8 1 12 -9 12 -11 0 -15 -5 -11 -16 3 -8 2
-12 -4 -9 -6 3 -10 21 -11 38 0 18 -3 26 -6 18 -4 -11 -10 -8 -25 10 -10 13
-18 20 -17 14z m284 -24 c3 -5 1 -12 -5 -16 -5 -3 -10 1 -10 9 0 18 6 21 15 7z
m-298 -113 c-3 -8 -6 -5 -6 6 -1 11 2 17 5 13 3 -3 4 -12 1 -19z m-397 -178
c0 -5 -2 -10 -4 -10 -3 0 -8 5 -11 10 -3 6 -1 10 4 10 6 0 11 -4 11 -10z m249
-9 c16 -10 23 -51 9 -51 -4 0 -8 9 -8 20 0 10 -8 24 -17 29 -10 6 -13 10 -8
11 6 0 16 -4 24 -9z m591 -95 c0 -2 -8 -10 -17 -17 -16 -13 -17 -12 -4 4 13
16 21 21 21 13z m-638 -141 c3 -13 1 -22 -3 -19 -9 5 -13 44 -5 44 2 0 6 -11
8 -25z m-44 -39 c4 -35 -14 -26 -20 9 -4 16 -1 24 6 22 6 -2 12 -16 14 -31z
m872 -192 c0 -14 -3 -14 -15 -4 -8 7 -15 14 -15 16 0 2 7 4 15 4 8 0 15 -7 15
-16z m-83 -36 c-3 -8 -6 -5 -6 6 -1 11 2 17 5 13 3 -3 4 -12 1 -19z m43 2 c0
-5 -4 -10 -9 -10 -6 0 -13 5 -16 10 -3 6 1 10 9 10 9 0 16 -4 16 -10z m603
-155 c-3 -8 -13 -15 -22 -15 -14 1 -14 2 2 14 15 12 16 14 2 20 -8 3 -15 13
-15 23 1 16 3 15 20 -5 10 -13 16 -30 13 -37z m67 -58 c22 -30 40 -59 40 -65
0 -20 -18 -13 -25 8 -4 11 -22 41 -41 65 -18 25 -30 45 -24 45 5 0 27 -24 50
-53z m-130 23 c0 -5 -7 -7 -15 -4 -8 4 -15 8 -15 10 0 2 7 4 15 4 8 0 15 -4
15 -10z m70 1 c0 -5 15 -32 33 -60 78 -122 93 -152 67 -136 -20 12 -3 -36 22
-65 24 -27 24 -30 7 -30 -24 0 -25 -27 -2 -52 12 -14 13 -18 3 -18 -11 0 -11
-3 -2 -12 7 -7 12 -17 12 -22 0 -6 -5 -5 -12 2 -7 7 -16 12 -21 12 -5 0 -1 -7
8 -16 9 -10 14 -25 12 -36 -3 -10 2 -22 11 -28 14 -8 11 -10 -13 -10 -27 -1
-28 -2 -13 -14 17 -13 21 -56 5 -56 -5 0 -7 -9 -4 -19 6 -26 -59 -64 -72 -42
-5 8 -6 24 -1 36 4 11 4 28 -1 37 -7 13 -4 18 11 23 11 3 20 11 20 16 0 6 -4
7 -10 4 -6 -4 -7 2 -1 18 6 16 6 28 -2 36 -8 8 -6 11 7 11 17 0 17 1 2 25 -15
23 -15 25 -1 25 12 0 15 6 9 23 -3 12 -11 24 -15 25 -20 8 -7 23 14 17 20 -5
20 -5 -3 9 -23 14 -21 20 5 17 6 -1 3 4 -6 11 -26 22 -31 48 -8 48 16 0 14 5
-15 31 -42 36 -70 86 -52 93 6 2 1 5 -11 5 -23 1 -34 21 -12 21 8 0 9 4 0 13
-6 8 -8 17 -4 20 3 4 -1 7 -10 7 -17 0 -23 21 -10 33 10 10 53 8 53 -2z m-400
-73 c0 -18 -16 -6 -33 25 l-19 32 26 -24 c14 -14 26 -28 26 -33z m-123 16 c-3
-3 -12 -4 -19 -1 -8 3 -5 6 6 6 11 1 17 -2 13 -5z m647 -93 c-6 -6 -24 19 -24
34 1 6 7 1 15 -9 8 -11 12 -22 9 -25z m47 -54 c9 -12 24 -35 33 -52 14 -24 10
-21 -23 14 -39 41 -50 61 -33 61 4 0 14 -11 23 -23z m-131 -3 c0 -2 -7 -4 -15
-4 -8 0 -15 4 -15 10 0 5 7 7 15 4 8 -4 15 -8 15 -10z m-185 -4 c3 -6 -1 -7
-9 -4 -18 7 -21 14 -7 14 6 0 13 -4 16 -10z m272 -16 c-3 -3 -12 -4 -19 -1 -8
3 -5 6 6 6 11 1 17 -2 13 -5z m-513 -329 c11 -8 15 -15 10 -15 -6 0 -14 4 -19
9 -6 5 -21 11 -35 14 l-25 4 25 1 c14 1 34 -5 44 -13z m-17 -30 c18 -11 33
-24 33 -28 0 -10 -57 23 -73 42 -14 16 -5 13 40 -14z m433 -26 c0 -6 -4 -7
-10 -4 -5 3 -10 11 -10 16 0 6 5 7 10 4 6 -3 10 -11 10 -16z m200 1 c0 -5 -8
-10 -17 -10 -15 0 -16 2 -3 10 19 12 20 12 20 0z m-305 -40 c4 -6 -13 -10 -44
-10 -28 0 -51 5 -51 10 0 6 20 10 44 10 25 0 48 -4 51 -10z m94 -55 c2 -13 -1
-16 -12 -12 -9 3 -17 1 -20 -6 -2 -6 -6 -4 -10 6 -4 11 -1 17 9 17 9 0 12 5 8
11 -4 7 -1 10 7 7 8 -3 16 -13 18 -23z m-394 -105 c3 -6 -1 -7 -9 -4 -18 7
-21 14 -7 14 6 0 13 -4 16 -10z"/>
<path d="M600 2411 c0 -5 5 -13 10 -16 6 -3 10 -2 10 4 0 5 -4 13 -10 16 -5 3
-10 2 -10 -4z"/>
<path d="M442 2357 c12 -29 27 -59 33 -67 7 -8 14 -19 16 -25 12 -30 61 -116
64 -113 3 2 -15 43 -39 90 -24 47 -47 98 -50 114 -4 16 -15 35 -26 41 -18 12
-18 10 2 -40z"/>
<path d="M580 2390 c0 -5 5 -10 11 -10 5 0 7 5 4 10 -3 6 -8 10 -11 10 -2 0
-4 -4 -4 -10z"/>
<path d="M1867 2383 c-4 -3 -7 -11 -7 -17 0 -6 5 -5 12 2 6 6 9 14 7 17 -3 3
-9 2 -12 -2z"/>
<path d="M2501 2365 c9 -8 79 -35 79 -30 0 7 -57 35 -71 35 -7 0 -10 -2 -8 -5z"/>
<path d="M89 2327 c-31 -26 -69 -87 -69 -110 0 -12 15 -5 55 25 53 40 61 54
47 90 -7 16 -9 16 -33 -5z"/>
<path d="M530 2260 c6 -11 13 -20 16 -20 2 0 0 9 -6 20 -6 11 -13 20 -16 20
-2 0 0 -9 6 -20z"/>
<path d="M2460 2234 c0 -8 5 -24 11 -35 6 -11 12 -30 15 -42 2 -12 8 -23 14
-25 5 -2 10 -10 10 -18 0 -20 24 -17 51 5 24 19 24 19 5 40 -15 16 -27 20 -48
16 -25 -6 -28 -4 -28 18 0 32 -9 57 -21 57 -5 0 -9 -7 -9 -16z"/>
<path d="M550 2221 c0 -6 4 -13 10 -16 6 -3 7 1 4 9 -7 18 -14 21 -14 7z"/>
<path d="M133 2208 c-1 -7 -5 -48 -9 -91 -6 -64 -5 -77 7 -72 16 6 27 175 11
175 -5 0 -9 -6 -9 -12z"/>
<path d="M439 2203 c-13 -16 -12 -17 4 -4 9 7 17 15 17 17 0 8 -8 3 -21 -13z"/>
<path d="M2147 2175 c-10 -70 -9 -79 11 -91 17 -11 18 -8 14 50 -6 82 -17 100
-25 41z"/>
<path d="M2073 2193 c-19 -7 -16 -53 3 -53 8 0 13 4 9 9 -3 5 3 12 12 14 17 4
17 5 1 6 -11 1 -15 6 -12 16 6 16 6 16 -13 8z"/>
<path d="M570 2181 c0 -6 4 -13 10 -16 6 -3 7 1 4 9 -7 18 -14 21 -14 7z"/>
<path d="M567 2115 c3 -16 15 -55 25 -85 18 -54 18 -55 0 -70 -11 -8 -32 -25
-48 -38 -18 -14 -37 -21 -50 -18 -26 7 -92 -24 -120 -56 -55 -61 -81 -113 -83
-168 -1 -30 -4 -63 -7 -72 -3 -11 0 -18 8 -18 9 0 10 -3 2 -8 -17 -11 -28 -52
-14 -52 8 0 10 -10 7 -26 -3 -18 -1 -22 6 -15 14 14 27 14 27 0 0 -7 8 -17 17
-24 14 -10 9 -11 -28 -5 -72 12 -122 34 -126 56 -2 10 -6 56 -10 102 -5 71 -4
85 12 102 10 11 13 20 7 20 -6 0 -14 -4 -17 -10 -15 -24 -21 -6 -17 51 3 40 0
65 -8 72 -9 9 -11 -10 -8 -88 2 -89 0 -105 -19 -138 -12 -20 -19 -37 -14 -37
5 0 15 14 24 32 l15 31 7 -59 c4 -32 9 -67 11 -76 4 -15 0 -15 -30 -7 -19 5
-48 16 -63 24 -44 23 -53 19 -53 -25 0 -27 5 -43 15 -46 9 -4 15 -17 14 -33
-1 -17 -3 -20 -6 -8 -11 41 -23 -1 -23 -79 0 -91 4 -96 55 -72 27 12 35 52 13
61 -7 3 -4 6 7 7 18 1 18 2 -5 15 -18 10 -20 14 -8 15 17 0 33 33 24 48 -3 5
9 9 26 8 36 -1 62 -31 40 -45 -18 -11 38 -31 87 -31 25 0 40 -6 49 -20 11 -18
10 -20 -8 -20 -17 0 -19 -2 -8 -14 10 -10 17 -11 31 -2 13 8 20 8 26 -2 5 -8
15 -10 27 -5 17 6 18 5 3 -9 -8 -9 -24 -17 -34 -19 -10 -2 -20 -11 -23 -19 -4
-12 -2 -13 9 -2 15 14 49 16 49 2 0 -5 -17 -12 -37 -15 -21 -4 -44 -8 -50 -10
-21 -7 -15 -25 8 -25 11 0 17 4 14 10 -3 5 0 7 9 4 8 -3 33 4 56 16 44 23 61
21 40 -5 -11 -13 -10 -14 6 -8 10 3 21 10 24 13 3 4 14 12 25 18 18 10 16 12
-15 13 -20 1 -27 3 -16 6 11 3 15 8 8 12 -6 3 8 7 31 8 23 0 52 3 64 5 26 5
43 18 23 18 -7 0 -10 3 -7 6 4 4 13 1 21 -5 8 -7 20 -10 27 -6 8 6 7 10 -2 16
-16 11 72 5 93 -6 7 -3 5 0 -5 8 -17 14 -16 15 15 13 l33 -3 3 88 c2 69 -1 98
-16 136 -11 26 -30 93 -42 148 -13 55 -25 105 -29 110 -6 11 -10 28 -13 58 -1
9 -5 17 -9 17 -12 0 -21 39 -14 61 6 17 9 18 23 7 15 -11 15 -11 4 3 -7 9 -10
24 -6 33 3 9 1 16 -5 16 -6 0 -26 33 -45 73 -19 39 -32 59 -29 42z m-502 -605
c-3 -5 -12 -7 -20 -3 -21 7 -19 13 6 13 11 0 18 -4 14 -10z m90 -40 c13 -6 15
-9 5 -9 -8 0 -22 4 -30 9 -18 12 -2 12 25 0z m135 -37 c23 -13 22 -13 -25 -7
-27 3 -58 12 -70 20 -18 14 -16 14 25 8 25 -4 56 -13 70 -21z m50 2 c7 -8 20
-15 29 -15 26 0 124 -31 118 -37 -3 -3 -27 2 -53 11 -26 9 -56 16 -66 16 -10
0 -28 9 -40 20 -12 11 -17 20 -11 20 6 0 16 -7 23 -15z m-131 -35 c-8 -6 -4
-10 12 -12 22 -4 22 -5 5 -13 -12 -5 -21 -3 -27 6 -14 22 -11 39 7 32 12 -4
13 -8 3 -13z"/>
<path d="M357 2095 c-9 -19 -15 -35 -12 -35 7 0 37 61 33 66 -3 2 -12 -12 -21
-31z"/>
<path d="M2069 2125 c-3 -2 -3 -22 -1 -44 3 -28 11 -45 27 -55 15 -10 26 -12
30 -6 3 6 -1 13 -9 16 -9 3 -16 10 -16 15 0 4 8 6 18 2 15 -6 15 -4 -2 15 -12
14 -14 22 -7 22 7 0 9 4 6 10 -8 13 -41 31 -46 25z"/>
<path d="M290 2110 c-9 -6 -10 -10 -3 -10 6 0 15 5 18 10 8 12 4 12 -15 0z"/>
<path d="M133 2032 c-10 -6 -11 -25 -4 -81 5 -40 11 -74 13 -76 2 -2 4 35 4
81 1 46 1 84 0 84 0 0 -7 -4 -13 -8z"/>
<path d="M2323 2033 c9 -2 23 -2 30 0 6 3 -1 5 -18 5 -16 0 -22 -2 -12 -5z"/>
<path d="M2420 1991 c17 -32 12 -71 -11 -90 l-22 -17 23 -68 c12 -37 28 -70
36 -73 8 -3 12 -9 9 -13 -3 -4 2 -13 10 -20 11 -9 15 -9 15 -1 0 12 -21 52
-31 61 -3 3 -12 16 -18 28 -11 21 -10 27 8 46 12 12 21 33 21 46 0 14 11 33
28 46 15 12 24 26 20 30 -5 4 -17 -1 -27 -10 -24 -22 -37 -15 -44 24 -4 16
-11 30 -17 30 -7 0 -8 -6 0 -19z"/>
<path d="M278 1938 c-10 -23 -16 -43 -14 -46 6 -5 37 69 34 79 -2 5 -11 -10
-20 -33z"/>
<path d="M2091 1879 c6 -25 6 -54 0 -76 -13 -44 8 -79 58 -100 19 -8 51 -27
70 -41 28 -22 34 -23 28 -9 -4 10 -7 25 -7 32 0 7 -23 39 -51 69 -28 31 -46
56 -40 56 6 0 11 5 11 10 0 6 -6 10 -13 10 -20 0 -47 38 -47 65 0 14 -4 25 -9
25 -5 0 -5 -17 0 -41z"/>
<path d="M686 1885 c6 -31 28 -122 45 -189 20 -73 20 -28 0 61 -19 87 -58 199
-45 128z"/>
<path d="M2555 1900 c3 -5 8 -10 11 -10 2 0 4 5 4 10 0 6 -5 10 -11 10 -5 0
-7 -4 -4 -10z"/>
<path d="M245 1869 c-4 -6 -5 -12 -2 -15 2 -3 7 2 10 11 7 17 1 20 -8 4z"/>
<path d="M2486 1825 c11 -42 9 -134 -3 -146 -6 -6 -33 -11 -60 -11 -34 1 -44
-1 -33 -8 18 -11 80 -13 96 -2 18 11 34 48 34 76 0 26 14 35 25 16 3 -5 1 -10
-5 -10 -8 0 -7 -6 1 -21 6 -12 7 -24 2 -28 -5 -3 -8 -12 -7 -18 1 -7 2 -21 3
-30 1 -10 10 -29 21 -43 l20 -25 0 111 0 111 -30 -5 c-16 -2 -30 -8 -30 -13 0
-5 -5 -9 -10 -9 -6 0 -5 8 2 20 8 12 24 20 40 20 18 0 28 5 28 14 0 12 -6 13
-30 5 -24 -9 -33 -8 -46 5 -21 22 -25 20 -18 -9z"/>
<path d="M226 1823 c-6 -14 -5 -15 5 -6 7 7 10 15 7 18 -3 3 -9 -2 -12 -12z"/>
<path d="M915 1720 c-4 -6 -11 -8 -16 -5 -5 4 -9 1 -9 -4 0 -6 8 -11 18 -11
10 0 19 7 19 15 0 18 -3 19 -12 5z"/>
<path d="M2496 1651 c-3 -5 1 -11 9 -15 9 -3 15 0 15 9 0 16 -16 20 -24 6z"/>
<path d="M752 1605 c0 -16 2 -22 5 -12 2 9 2 23 0 30 -3 6 -5 -1 -5 -18z"/>
<path d="M28 1593 c7 -3 16 -2 19 1 4 3 -2 6 -13 5 -11 0 -14 -3 -6 -6z"/>
<path d="M2525 1572 c6 -4 11 -18 12 -32 1 -14 -1 -19 -3 -12 -10 23 -24 12
-18 -15 6 -22 4 -25 -10 -20 -9 4 -16 4 -16 2 0 -4 79 -45 87 -45 2 0 3 22 3
48 0 50 -20 82 -51 82 -8 0 -10 -3 -4 -8z"/>
<path d="M82 1561 c-11 -7 -11 -9 2 -14 10 -4 16 -1 16 8 0 17 -1 17 -18 6z"/>
<path d="M762 1510 c0 -14 2 -19 5 -12 2 6 2 18 0 25 -3 6 -5 1 -5 -13z"/>
<path d="M2400 1459 c0 -5 5 -7 10 -4 6 3 10 8 10 11 0 2 -4 4 -10 4 -5 0 -10
-5 -10 -11z"/>
<path d="M2498 1438 c25 -12 31 -34 6 -24 -9 3 -2 -12 17 -40 53 -73 59 -74
59 -15 0 50 0 51 -44 71 -46 20 -79 28 -38 8z"/>
<path d="M185 1340 c3 -5 8 -10 11 -10 2 0 4 5 4 10 0 6 -5 10 -11 10 -5 0 -7
-4 -4 -10z"/>
<path d="M790 1329 c0 -13 5 -31 10 -39 7 -11 8 -5 4 20 -8 43 -14 51 -14 19z"/>
<path d="M743 1275 c0 -22 2 -30 4 -17 2 12 2 30 0 40 -3 9 -5 -1 -4 -23z"/>
<path d="M638 1293 c7 -3 16 -2 19 1 4 3 -2 6 -13 5 -11 0 -14 -3 -6 -6z"/>
<path d="M769 1228 c-2 -73 -5 -111 -13 -136 -4 -12 -9 -45 -10 -74 -4 -53 -4
-53 15 22 21 86 33 240 19 240 -6 0 -10 -24 -11 -52z"/>
<path d="M1545 1270 c-3 -6 1 -7 9 -4 18 7 21 14 7 14 -6 0 -13 -4 -16 -10z"/>
<path d="M53 1253 l-33 -4 0 -244 c0 -185 3 -245 13 -248 9 -4 9 -6 0 -6 -18
-1 -19 -491 -1 -509 9 -9 9 -12 0 -12 -9 0 -12 -30 -12 -105 l0 -105 40 0 c42
0 101 30 153 78 15 14 27 21 27 15 0 -6 -21 -29 -47 -51 l-47 -41 258 0 257 0
-16 27 -16 27 25 -27 25 -28 444 0 443 0 2 148 c1 149 -8 202 -35 202 -8 0
-21 13 -30 28 -12 21 -24 29 -45 29 -15 0 -28 -5 -27 -11 5 -40 -2 -65 -16
-60 -11 5 -13 2 -9 -10 9 -23 -28 -21 -50 3 -13 14 -14 20 -4 23 10 4 9 9 -5
22 -9 10 -17 24 -17 32 0 8 -4 14 -9 14 -4 0 -7 -12 -4 -27 3 -27 3 -27 -8 -6
-7 13 -18 23 -26 23 -7 0 -13 1 -13 3 0 1 -4 17 -10 35 -8 29 -7 32 5 22 8 -7
15 -18 15 -26 0 -14 18 -29 26 -21 10 9 -29 59 -52 67 -12 5 -26 22 -32 39
-10 28 -8 34 18 61 26 26 31 28 59 17 27 -10 33 -9 46 8 8 11 15 16 15 10 0
-5 11 9 25 31 14 23 32 44 40 48 8 3 12 12 9 21 -3 8 -1 15 5 15 6 0 11 7 11
16 0 14 -3 14 -15 4 -12 -10 -18 -10 -30 0 -12 10 -15 10 -15 0 0 -10 -3 -10
-15 0 -8 7 -15 8 -15 3 0 -5 -13 -13 -28 -19 -36 -14 -62 2 -63 37 l0 24 -11
-22 c-13 -27 -24 -29 -33 -6 -6 16 -8 15 -25 -7 -11 -14 -20 -33 -20 -42 0
-10 -4 -18 -9 -18 -14 0 -20 27 -8 39 6 6 7 14 4 18 -4 4 -14 -3 -23 -15 -19
-28 -60 -29 -67 -2 -4 17 -14 20 -56 20 -49 0 -51 -1 -51 -27 0 -14 11 -40 24
-57 13 -17 26 -41 30 -52 4 -12 20 -27 36 -34 17 -7 30 -17 30 -22 0 -5 9 0
21 11 20 18 22 18 50 3 l29 -17 -2 -114 c-2 -88 -6 -115 -17 -119 -10 -3 -12
0 -8 11 4 11 -1 18 -14 22 -14 5 -19 13 -16 26 6 21 -12 26 -31 7 -7 -7 -12
-8 -12 -3 0 4 -9 0 -20 -10 -11 -10 -20 -28 -20 -41 0 -13 -5 -26 -12 -30 -29
-18 -104 -12 -93 7 9 13 -8 11 -29 -4 -22 -16 -76 -10 -76 9 0 8 -10 14 -26
14 -17 0 -23 4 -18 13 5 8 2 7 -9 -2 -10 -8 -20 -11 -24 -7 -12 11 -9 57 4 68
7 6 13 15 13 21 0 16 -36 -35 -48 -68 l-10 -30 -1 32 c-1 17 4 35 9 38 6 3 10
13 10 22 0 13 -3 13 -15 3 -8 -7 -15 -9 -16 -4 -1 5 -7 -9 -14 -31 -13 -40
-16 -37 -20 28 -2 26 -15 52 -15 29 0 -8 -7 -9 -25 -2 -22 9 -37 -2 -17 -13 4
-2 1 -2 -7 0 -7 2 -20 -2 -28 -8 -24 -20 -27 0 -4 25 15 16 19 26 12 31 -6 3
-8 12 -4 18 4 8 1 7 -9 -1 -9 -7 -19 -25 -23 -39 -5 -20 -9 -23 -15 -13 -7 11
-11 11 -24 1 -26 -22 -18 -4 11 25 16 15 21 22 12 16 -9 -7 -19 -9 -22 -6 -4
4 -18 -1 -31 -10 -32 -21 -35 -20 -29 4 4 14 -2 22 -21 30 -14 5 -26 12 -26
14 0 3 7 3 15 0 16 -7 19 4 7 23 -6 10 -14 9 -36 -2 -32 -17 -60 -20 -51 -6 3
5 -3 12 -12 14 -17 4 -17 5 0 6 10 0 16 5 13 10 -3 5 -15 7 -25 4 -10 -3 -22
1 -26 8 -6 9 2 11 33 6 52 -6 56 8 5 17 -44 8 -71 17 -173 59 -86 35 -102 45
-94 59 3 5 -3 12 -14 15 -23 6 -26 43 -4 43 7 0 11 -4 8 -8 -3 -5 11 -14 30
-21 18 -7 34 -16 34 -20 0 -5 32 -20 71 -35 73 -27 94 -32 69 -16 -28 17 -4
18 45 2 28 -10 50 -23 51 -30 2 -27 5 -32 16 -32 6 0 19 -7 28 -15 15 -13 22
-13 57 -1 56 20 120 53 129 68 4 6 -3 4 -17 -5 -27 -20 -43 -22 -33 -5 5 8 0
9 -17 4 -13 -4 -41 -10 -61 -13 -22 -3 -35 -10 -31 -16 4 -6 1 -7 -8 -1 -8 4
-22 8 -31 9 -10 0 -18 5 -19 10 -2 20 -20 33 -56 38 -50 9 -163 68 -163 86 0
28 -24 81 -37 81 -28 0 0 35 44 55 1 0 0 10 -3 21 -4 16 -12 20 -32 17 -26 -4
-26 -4 5 12 31 17 72 65 54 65 -4 0 -35 -12 -67 -27 -33 -15 -63 -29 -69 -32
-5 -2 1 5 15 17 27 22 36 72 12 72 -9 0 -12 6 -8 15 4 10 -2 19 -15 24 -21 7
-20 9 14 46 25 27 32 42 24 47 -8 5 -6 9 6 14 20 7 23 25 5 22 -7 0 -28 -3
-45 -5z m148 -504 c23 -11 39 -22 37 -24 -4 -5 -88 35 -88 41 0 8 11 4 51 -17z
m1006 1 c-7 -28 9 -35 18 -7 l8 22 4 -23 c6 -30 -12 -51 -37 -45 -16 4 -18 11
-14 32 8 30 13 41 21 41 3 0 3 -9 0 -20z m-720 -92 c-21 -7 -32 -7 -40 1 -8 8
0 11 29 10 39 -1 39 -1 11 -11z m-212 -38 c3 -5 1 -10 -4 -10 -6 0 -11 5 -11
10 0 6 2 10 4 10 3 0 8 -4 11 -10z m175 -101 c0 -5 -4 -7 -10 -4 -5 3 -10 1
-10 -4 0 -6 -5 -11 -11 -11 -8 0 -8 5 1 15 14 17 30 20 30 4z m791 -76 c-9
-15 -10 -12 -10 17 0 29 1 32 10 18 7 -12 7 -24 0 -35z m-757 -100 c-7 -43
-35 -77 -79 -101 -26 -14 -28 -16 -10 -20 11 -2 49 -17 84 -33 46 -22 73 -28
95 -24 29 6 30 5 12 -10 -11 -8 -18 -16 -15 -16 2 -1 13 -3 24 -4 11 -2 31 -8
45 -14 l25 -11 -27 5 c-24 5 -28 2 -28 -17 0 -18 -2 -20 -9 -8 -6 8 -7 18 -5
22 3 4 -6 8 -20 8 -14 0 -26 6 -27 13 0 9 -2 9 -6 -1 -4 -9 -8 -10 -18 -2 -9
8 -15 8 -20 0 -3 -5 -15 -10 -26 -10 -10 0 -19 -4 -19 -10 0 -5 -4 -10 -10
-10 -23 0 -8 28 21 40 l31 13 -23 19 c-29 23 -53 33 -99 42 -27 6 -32 5 -20
-4 12 -9 11 -10 -6 -5 -16 4 -28 -1 -43 -21 -12 -15 -23 -25 -25 -23 -11 11
51 64 102 89 68 33 77 43 86 93 4 20 9 37 12 37 3 0 2 -17 -2 -37z m-356 -110
c-10 -2 -28 -2 -40 0 -13 2 -5 4 17 4 22 1 32 -1 23 -4z m130 0 c-10 -2 -28
-2 -40 0 -13 2 -5 4 17 4 22 1 32 -1 23 -4z m49 -9 c-3 -3 -12 -4 -19 -1 -8 3
-5 6 6 6 11 1 17 -2 13 -5z m120 -40 c-3 -3 -12 -4 -19 -1 -8 3 -5 6 6 6 11 1
17 -2 13 -5z m-135 -78 c25 -25 61 -53 80 -61 20 -8 26 -14 15 -15 -10 0 -32
8 -50 17 -18 9 -45 16 -62 16 -21 -1 -24 0 -7 4 12 2 22 9 22 14 0 12 -43 56
-80 82 l-25 17 30 -14 c17 -8 51 -35 77 -60z m-207 44 c10 -11 16 -20 13 -20
-3 0 -13 9 -23 20 -10 11 -16 20 -13 20 3 0 13 -9 23 -20z m595 -60 c18 -12 2
-12 -25 0 -13 6 -15 9 -5 9 8 0 22 -4 30 -9z"/>
<path d="M363 1199 c-18 -5 -33 -12 -33 -14 0 -10 52 0 62 12 6 7 9 13 7 12
-2 0 -19 -5 -36 -10z"/>
<path d="M328 1133 c7 -3 16 -2 19 1 4 3 -2 6 -13 5 -11 0 -14 -3 -6 -6z"/>
<path d="M718 1000 c-4 -14 -8 -34 -8 -45 1 -19 1 -19 11 -2 6 10 9 30 7 45
l-3 27 -7 -25z"/>
<path d="M690 879 c-15 -45 -114 -159 -138 -159 -12 0 -12 3 -1 18 13 16 0 8
-41 -27 -3 -2 3 -1 12 2 9 3 19 1 21 -6 3 -8 15 -2 34 16 16 15 34 27 39 27
24 0 107 150 92 166 -3 2 -11 -15 -18 -37z"/>
<path d="M1715 900 c-3 -5 -1 -10 4 -10 6 0 11 5 11 10 0 6 -2 10 -4 10 -3 0
-8 -4 -11 -10z"/>
<path d="M640 855 c-14 -25 -28 -45 -33 -45 -4 0 -5 -4 -2 -10 3 -5 1 -10 -4
-10 -6 0 -11 -4 -11 -10 0 -21 16 -8 45 38 35 56 47 82 37 82 -4 0 -18 -20
-32 -45z"/>
<path d="M1753 893 c9 -2 25 -2 35 0 9 3 1 5 -18 5 -19 0 -27 -2 -17 -5z"/>
<path d="M1800 876 c0 -2 7 -7 16 -10 8 -3 12 -2 9 4 -6 10 -25 14 -25 6z"/>
<path d="M1756 863 c5 -5 12 -12 16 -18 4 -6 8 -2 8 8 0 9 -7 17 -17 17 -9 0
-12 -3 -7 -7z"/>
<path d="M1120 830 c0 -5 5 -10 11 -10 5 0 7 5 4 10 -3 6 -8 10 -11 10 -2 0
-4 -4 -4 -10z"/>
<path d="M1158 803 c7 -3 16 -2 19 1 4 3 -2 6 -13 5 -11 0 -14 -3 -6 -6z"/>
<path d="M1786 790 c16 -16 89 -26 80 -11 -4 6 -16 9 -27 6 -11 -4 -19 -2 -19
4 0 6 -10 11 -22 11 -15 0 -19 -3 -12 -10z"/>
<path d="M1840 714 c0 -2 9 -8 20 -14 15 -8 18 -8 14 3 -4 11 -34 21 -34 11z"/>
<path d="M1892 704 c20 -44 33 -64 40 -64 11 0 -18 56 -33 66 -6 4 -10 3 -7
-2z"/>
<path d="M295 690 c27 -12 43 -12 25 0 -8 5 -22 9 -30 9 -10 0 -8 -3 5 -9z"/>
<path d="M1800 565 c7 -9 15 -13 17 -11 7 7 -7 26 -19 26 -6 0 -6 -6 2 -15z"/>
<path d="M1085 530 c-3 -5 1 -10 10 -10 9 0 13 5 10 10 -3 6 -8 10 -10 10 -2
0 -7 -4 -10 -10z"/>
<path d="M1310 521 c0 -5 5 -13 10 -16 6 -3 10 -2 10 4 0 5 -4 13 -10 16 -5 3
-10 2 -10 -4z"/>
<path d="M1826 511 c-3 -5 0 -14 8 -20 10 -8 16 -8 25 3 9 11 8 15 -5 20 -20
8 -22 8 -28 -3z"/>
<path d="M1590 450 c-12 -7 -12 -10 3 -16 21 -8 29 -3 19 13 -5 8 -13 9 -22 3z"/>
<path d="M1632 408 c4 -28 19 -27 30 1 6 17 3 21 -13 21 -15 0 -20 -5 -17 -22z"/>
<path d="M2350 365 c-88 -38 -164 -83 -247 -145 -33 -25 -87 -64 -119 -87 -33
-24 -77 -59 -99 -78 l-40 -34 368 -1 367 0 0 70 c0 39 -4 70 -9 70 -10 0 -9
26 2 36 4 4 7 52 7 106 l0 98 -77 -1 c-65 -1 -91 -7 -153 -34z"/>
</g>
</svg>
